<svg width="281" height="57" viewBox="0 0 281 57" fill="none" xmlns="http://www.w3.org/2000/svg">
<path d="M7.82923 4.66125H17.8303L25.4822 53.9099H18.0988L16.7564 44.1305V44.2712H8.3662L7.02377 53.9099H0.177368L7.82923 4.66125ZM15.8838 37.5875L12.5949 13.2446H12.4606L9.23878 37.5875H15.8838Z" fill="white"/>
<path d="M29.0643 4.66125H39.6024L44.3009 39.9092H44.4351L49.1337 4.66125H59.6717V53.9099H52.6911V16.6216H52.5569L47.1871 53.9099H41.0119L35.6422 16.6216H35.508V53.9099H29.0643V4.66125Z" fill="white"/>
<path d="M65.1815 4.66125H76.3237C80.1272 4.66125 82.9016 5.59932 84.6467 7.47546C86.3919 9.30469 87.2645 12.1424 87.2645 15.9884V17.9584C87.2645 20.4912 86.8618 22.5549 86.0563 24.1496C85.2956 25.7444 84.1098 26.8935 82.4989 27.597V27.7378C86.1682 29.0511 88.0028 32.475 88.0028 38.0096V42.2309C88.0028 46.0301 87.0407 48.9381 85.1166 50.955C83.2372 52.9249 80.4628 53.9099 76.7935 53.9099H65.1815V4.66125ZM75.4511 24.7125C76.9278 24.7125 78.0241 24.3138 78.74 23.5164C79.5008 22.7191 79.8811 21.3823 79.8811 19.5062V16.7623C79.8811 14.98 79.5679 13.6902 78.9414 12.8928C78.3597 12.0954 77.42 11.6968 76.1223 11.6968H72.5649V24.7125H75.4511ZM76.7935 46.8744C78.0912 46.8744 79.0533 46.5226 79.6797 45.819C80.3062 45.0686 80.6194 43.8022 80.6194 42.0199V37.7282C80.6194 35.4768 80.2391 33.929 79.4784 33.0848C78.7624 32.1936 77.5542 31.748 75.8538 31.748H72.5649V46.8744H76.7935Z" fill="white"/>
<path d="M103.068 4.66125H123.205V11.6968H110.452V24.7125H120.587V31.748H110.452V46.8744H123.205V53.9099H103.068V4.66125Z" fill="white"/>
<path d="M127.452 4.66125H136.715L143.897 34.1401H144.032V4.66125H150.609V53.9099H143.025L134.165 17.9584H134.03V53.9099H127.452V4.66125Z" fill="white"/>
<path d="M161.87 11.6968H154.151V4.66125H176.972V11.6968H169.253V53.9099H161.87V11.6968Z" fill="white"/>
<path d="M180.547 4.66125H200.683V11.6968H187.93V24.7125H198.065V31.748H187.93V46.8744H200.683V53.9099H180.547V4.66125Z" fill="white"/>
<path d="M203.857 25.7678H218.624V32.8033H203.857V25.7678Z" fill="white"/>
<path d="M232.62 54.6134C229.041 54.6134 226.333 53.5581 224.499 51.4475C222.664 49.2899 221.747 46.2177 221.747 42.2309V39.4167H228.727V42.7938C228.727 45.9832 230.003 47.5779 232.553 47.5779C233.806 47.5779 234.746 47.2027 235.372 46.4522C236.044 45.6549 236.379 44.3885 236.379 42.6531C236.379 40.5893 235.932 38.7835 235.037 37.2357C234.142 35.641 232.486 33.7414 230.07 31.5369C227.027 28.7227 224.901 26.1899 223.693 23.9386C222.485 21.6403 221.881 19.0606 221.881 16.1995C221.881 12.3065 222.821 9.30469 224.7 7.19404C226.58 5.03648 229.309 3.9577 232.889 3.9577C236.424 3.9577 239.087 5.03648 240.876 7.19404C242.711 9.30469 243.628 12.3534 243.628 16.3402V18.3805H236.648V15.8477C236.648 14.1592 236.335 12.9397 235.708 12.1893C235.082 11.3919 234.164 10.9932 232.956 10.9932C230.495 10.9932 229.264 12.5645 229.264 15.707C229.264 17.4893 229.712 19.1544 230.607 20.7022C231.547 22.25 233.225 24.1262 235.641 26.3307C238.729 29.1449 240.854 31.7011 242.018 33.9994C243.181 36.2976 243.763 38.9946 243.763 42.0902C243.763 46.1239 242.801 49.2195 240.876 51.3771C238.997 53.5347 236.245 54.6134 232.62 54.6134Z" fill="white"/>
<path d="M247.996 4.66125H268.133V11.6968H255.379V24.7125H265.515V31.748H255.379V46.8744H268.133V53.9099H247.996V4.66125Z" fill="white"/>
<path d="M98.9577 32.0154V54.6134H90.836V32.0154L91.8696 14.7572H97.924L98.9577 32.0154ZM98.81 8.64336H90.9836V0.439941H98.81V8.64336Z" fill="white"/>
<path d="M272.067 25.1487V2.55059H280.189V25.1487L279.155 42.4068H273.101L272.067 25.1487ZM272.215 48.5207H280.041V56.7241H272.215V48.5207Z" fill="white"/>
</svg>
