<svg width="23" height="24" viewBox="0 0 23 24" fill="none" xmlns="http://www.w3.org/2000/svg">
    <path d="M15.8986 9.125H14.3748V4.33333C14.3748 3.80625 13.9436 3.375 13.4165 3.375H9.58317C9.05609 3.375 8.62484 3.80625 8.62484 4.33333V9.125H7.10109C6.24817 9.125 5.81692 10.16 6.42067 10.7638L10.8194 15.1625C11.1932 15.5363 11.7969 15.5363 12.1707 15.1625L16.5694 10.7638C17.1732 10.16 16.7515 9.125 15.8986 9.125ZM4.7915 18.7083C4.7915 19.2354 5.22275 19.6667 5.74984 19.6667H17.2498C17.7769 19.6667 18.2082 19.2354 18.2082 18.7083C18.2082 18.1812 17.7769 17.75 17.2498 17.75H5.74984C5.22275 17.75 4.7915 18.1812 4.7915 18.7083Z" fill="white"/>
</svg>
