<svg width="66" height="66" viewBox="0 0 66 66" fill="none" xmlns="http://www.w3.org/2000/svg">
    <path d="M41.085 53.625L33 48.8675L24.915 53.625L27.06 44.44L19.9375 38.28L29.315 37.4825L33 28.875L36.685 37.4825L46.0625 38.28L38.94 44.44M55 5.5H11V11L24.365 21.01C19.7022 22.9999 15.8696 26.5391 13.5156 31.0291C11.1615 35.5191 10.4304 40.6844 11.4459 45.6514C12.4614 50.6183 15.1612 55.0821 19.0887 58.2879C23.0162 61.4936 27.9303 63.2445 33 63.2445C38.0697 63.2445 42.9839 61.4936 46.9114 58.2879C50.8388 55.0821 53.5386 50.6183 54.5541 45.6514C55.5697 40.6844 54.8386 35.5191 52.4845 31.0291C50.1305 26.5391 46.2979 22.9999 41.635 21.01L55 11M49.5 41.25C49.5015 44.3748 48.6156 47.4357 46.9455 50.0767C45.2754 52.7177 42.8897 54.8301 40.0659 56.1683C37.2422 57.5064 34.0965 58.0152 30.9949 57.6355C27.8933 57.2558 24.9633 56.0031 22.5458 54.0233C20.1283 52.0435 18.3226 49.4179 17.3389 46.452C16.3553 43.4861 16.234 40.3019 16.9892 37.2698C17.7445 34.2377 19.3452 31.4823 21.6051 29.3244C23.8651 27.1664 26.6913 25.6945 29.755 25.08C31.8963 24.6429 34.1038 24.6429 36.245 25.08C39.9821 25.8296 43.3444 27.8498 45.7607 30.7975C48.177 33.7452 49.4982 37.4385 49.5 41.25ZM34.7325 19.25H31.2675L20.2675 11H45.9525L34.7325 19.25Z" fill="black"/>
</svg>
