<svg width="74" height="74" viewBox="0 0 74 74" fill="none" xmlns="http://www.w3.org/2000/svg">
<path fill-rule="evenodd" clip-rule="evenodd" d="M6.85247 3.05931C10.7216 0.694817 15.5338 0 19.8214 0H54.1786C58.4662 0 63.2784 0.694817 67.1475 3.05931C71.3024 5.59842 74 9.85497 74 15.8571C74 21.8593 71.3024 26.1159 67.1475 28.655C63.8233 30.6864 59.803 31.4854 56.0173 31.6702C55.2258 33.2494 54.2028 34.7416 52.9312 36.088C50.0078 39.1834 45.9768 41.2894 40.9643 42.0106V47.5714H54.1786C56.368 47.5714 58.1429 49.3463 58.1429 51.5357V70.0357C58.1429 72.2251 56.368 74 54.1786 74H19.8214C17.632 74 15.8571 72.2251 15.8571 70.0357V51.5357C15.8571 49.3463 17.632 47.5714 19.8214 47.5714H33.0357V42.0106C28.0232 41.2894 23.9922 39.1834 21.0688 36.088C19.7972 34.7416 18.7742 33.2494 17.9827 31.6702C14.197 31.4854 10.1767 30.6864 6.85247 28.655C2.69757 26.1159 0 21.8593 0 15.8571C0 9.85497 2.69757 5.59842 6.85247 3.05931ZM15.8823 23.5067C15.8655 23.1587 15.8571 22.811 15.8571 22.4643V8.21146C13.9225 8.51033 12.2596 9.04681 10.9868 9.82462C9.19529 10.9194 7.92857 12.6093 7.92857 15.8571C7.92857 19.105 9.19529 20.7948 10.9868 21.8897C12.2651 22.6708 13.9369 23.2086 15.8823 23.5067ZM23.7857 7.92857V22.4643C23.7857 25.575 24.8217 28.5145 26.833 30.6441C28.7907 32.717 31.9872 34.3571 37 34.3571C42.0128 34.3571 45.2093 32.717 47.167 30.6441C49.1783 28.5145 50.2143 25.575 50.2143 22.4643V7.92857H23.7857ZM58.1429 8.21146V22.4643C58.1429 22.811 58.1345 23.1587 58.1177 23.5067C60.0631 23.2086 61.7349 22.6708 63.0132 21.8897C64.8047 20.7948 66.0714 19.105 66.0714 15.8571C66.0714 12.6093 64.8047 10.9194 63.0132 9.82462C61.7404 9.04681 60.0775 8.51033 58.1429 8.21146ZM23.7857 55.5V66.0714H50.2143V55.5H23.7857Z" fill="#B1AEAF"/>
</svg>
