<svg width="185" height="40" viewBox="0 0 185 40" fill="none" xmlns="http://www.w3.org/2000/svg">
<path d="M5.05549 3.425H11.6631L16.7186 37.55H11.8405L10.9536 30.7738V30.8712H5.41026L4.52333 37.55H0L5.05549 3.425ZM10.3771 26.24L8.20408 9.3725H8.11539L5.98676 26.24H10.3771Z" fill="white"/>
<path d="M19.0852 3.425H26.0476L29.1519 27.8487H29.2405L32.3448 3.425H39.3072V37.55H34.6951V11.7125H34.6065L31.0587 37.55H26.9789L23.4312 11.7125H23.3425V37.55H19.0852V3.425Z" fill="white"/>
<path d="M42.9474 3.425H50.3089C52.8218 3.425 54.6548 4.075 55.8078 5.375C56.9608 6.6425 57.5373 8.60875 57.5373 11.2737V12.6387C57.5373 14.3937 57.2713 15.8237 56.7391 16.9287C56.2365 18.0337 55.4531 18.83 54.3888 19.3175V19.415C56.813 20.325 58.0252 22.6975 58.0252 26.5325V29.4575C58.0252 32.09 57.3895 34.105 56.1183 35.5025C54.8766 36.8675 53.0436 37.55 50.6193 37.55H42.9474V3.425ZM49.7324 17.3187C50.708 17.3187 51.4323 17.0425 51.9053 16.49C52.4079 15.9375 52.6592 15.0112 52.6592 13.7112V11.81C52.6592 10.575 52.4523 9.68125 52.0384 9.12875C51.6541 8.57625 51.0332 8.3 50.1758 8.3H47.8255V17.3187H49.7324ZM50.6193 32.675C51.4767 32.675 52.1123 32.4312 52.5262 31.9438C52.9401 31.4237 53.1471 30.5462 53.1471 29.3112V26.3375C53.1471 24.7775 52.8958 23.705 52.3932 23.12C51.9201 22.5025 51.1219 22.1937 49.9985 22.1937H47.8255V32.675H50.6193Z" fill="white"/>
<path d="M67.9788 3.425H81.2827V8.3H72.8569V17.3187H79.5532V22.1937H72.8569V32.675H81.2827V37.55H67.9788V3.425Z" fill="white"/>
<path d="M84.089 3.425H90.2088L94.9539 23.8512H95.0426V3.425H99.3885V37.55H94.3774L88.5237 12.6387H88.435V37.55H84.089V3.425Z" fill="white"/>
<path d="M106.828 8.3H101.728V3.425H116.806V8.3H111.706V37.55H106.828V8.3Z" fill="white"/>
<path d="M119.168 3.425H132.472V8.3H124.046V17.3187H130.742V22.1937H124.046V32.675H132.472V37.55H119.168V3.425Z" fill="white"/>
<path d="M134.568 18.05H144.325V22.925H134.568V18.05Z" fill="white"/>
<path d="M153.572 38.0375C151.207 38.0375 149.418 37.3062 148.206 35.8438C146.994 34.3487 146.388 32.22 146.388 29.4575V27.5075H151V29.8475C151 32.0575 151.843 33.1625 153.528 33.1625C154.356 33.1625 154.976 32.9025 155.39 32.3825C155.834 31.83 156.056 30.9525 156.056 29.75C156.056 28.32 155.76 27.0687 155.169 25.9962C154.577 24.8912 153.483 23.575 151.887 22.0475C149.877 20.0975 148.472 18.3425 147.674 16.7825C146.876 15.19 146.477 13.4025 146.477 11.42C146.477 8.7225 147.098 6.6425 148.339 5.18C149.581 3.685 151.384 2.9375 153.75 2.9375C156.085 2.9375 157.844 3.685 159.027 5.18C160.239 6.6425 160.845 8.755 160.845 11.5175V12.9312H156.233V11.1762C156.233 10.0062 156.026 9.16125 155.612 8.64125C155.198 8.08875 154.592 7.8125 153.794 7.8125C152.168 7.8125 151.355 8.90125 151.355 11.0787C151.355 12.3137 151.651 13.4675 152.242 14.54C152.863 15.6125 153.971 16.9125 155.568 18.44C157.608 20.39 159.012 22.1612 159.781 23.7537C160.549 25.3462 160.934 27.215 160.934 29.36C160.934 32.155 160.298 34.3 159.027 35.795C157.785 37.29 155.967 38.0375 153.572 38.0375Z" fill="white"/>
<path d="M163.731 3.425H177.035V8.3H168.609V17.3187H175.305V22.1937H168.609V32.675H177.035V37.55H163.731V3.425Z" fill="white"/>
<path d="M65.2629 22.379V38.0375H59.897V22.379L60.5799 10.4206H64.5799L65.2629 22.379ZM65.1653 6.18425H59.9945V0.5H65.1653V6.18425Z" fill="black"/>
<path d="M179.634 17.621V1.9625H185V17.621L184.317 29.5794H180.317L179.634 17.621ZM179.732 33.8157H184.902V39.5H179.732V33.8157Z" fill="black"/>
</svg>
